<svg width="292" height="285" viewBox="0 0 292 285" fill="none" xmlns="http://www.w3.org/2000/svg">
<path d="M248.719 152.677C238.482 203.723 255.355 184.773 254.081 207.369C252.912 228.115 210.944 245.33 134.83 247.048C66.6258 242.115 43.4166 218.546 41.3173 207.155C25.9121 123.561 64.0429 36 158.209 36C216.014 36 264.591 73.5339 248.719 152.677Z" fill="#FCC21B" stroke="#DA8500" stroke-width="8.58033"/>
<ellipse cx="175.367" cy="100.344" rx="14.5846" ry="17.5873" transform="rotate(15 175.367 100.344)" fill="#422B0D"/>
<ellipse cx="106.733" cy="93.0515" rx="14.5846" ry="17.5873" transform="rotate(15 106.733 93.0515)" fill="#422B0D"/>
<path d="M178.454 92.792C179.816 95.1514 178.793 97.7969 176.434 99.1591C174.075 100.521 171.272 100.084 169.91 97.725C168.548 95.3656 169.356 92.3486 171.715 90.9864C174.075 89.6241 177.092 90.4325 178.454 92.792Z" fill="#896024"/>
<path d="M108.163 85.0555C109.525 87.415 108.503 90.0605 106.143 91.4227C103.784 92.7849 100.981 92.348 99.619 89.9886C98.2568 87.6291 99.0652 84.6121 101.425 83.2499C103.784 81.8877 106.801 82.6961 108.163 85.0555Z" fill="#896024"/>
<mask id="mask0_341_31" style="mask-type:alpha" maskUnits="userSpaceOnUse" x="67" y="130" width="111" height="111">
<path d="M112 150L100.5 130.5L85 156.5L96.5 173L90 187.5L67 191L140 240.5L171.5 203L159 193V175L178 164L173 142L150 159L137 138.5L112 150Z" fill="#D9D9D9"/>
</mask>
<g mask="url(#mask0_341_31)">
<path d="M126.269 119.575L167.283 149.479C167.658 149.753 167.923 150.147 168.039 150.592L168.08 150.786L172.73 180.465C172.812 180.989 172.682 181.524 172.37 181.953L135.985 231.855C135.335 232.747 134.083 232.943 133.191 232.292L75.0132 189.874C74.1207 189.223 73.9247 187.972 74.5755 187.079L123.475 120.013C124.126 119.121 125.377 118.925 126.269 119.575Z" fill="#E5E9EE" stroke="#C0C7D1" stroke-width="2"/>
<path d="M168.068 148.814L173.102 180.949L157.749 169.755C155.964 168.454 155.572 165.952 156.874 164.167L168.068 148.814Z" fill="#C0C7D1"/>
<rect x="106.979" y="142.638" width="76" height="3" transform="rotate(36.0967 106.979 142.638)" fill="#C0C7D1"/>
<rect x="99.3197" y="153.142" width="76" height="3" transform="rotate(36.0967 99.3197 153.142)" fill="#C0C7D1"/>
<rect x="91.6608" y="163.646" width="76" height="3" transform="rotate(36.0967 91.6608 163.646)" fill="#C0C7D1"/>
<rect x="84.0018" y="174.151" width="76" height="3" transform="rotate(36.0967 84.0018 174.151)" fill="#C0C7D1"/>
</g>
<path d="M55.3623 187.135C85.2482 197.609 92.9446 186.152 95.9686 175.855C99.4909 163.86 84.8046 151.932 61.6021 152.323" stroke="#DA8500" stroke-width="8.58033" stroke-linecap="round"/>
<path d="M100.844 129.285C105.739 139.796 107.647 143.596 111.085 150.209C111.459 150.928 112.359 151.191 113.063 150.791C122.584 145.375 127.112 142.652 136.656 135.793C137.005 135.542 137.5 135.651 137.706 136.028C142.338 144.476 146.771 152.074 149.951 158.034C150.373 158.825 151.411 159.043 152.116 158.488C161.359 151.215 165.708 147.904 173.034 141.798" stroke="#30302F" stroke-width="8.58033" stroke-linecap="round"/>
<path d="M196.109 205.052C162.083 206.133 157.895 191.9 158.122 180.365C158.387 166.929 177.299 159.446 200.961 167.344" stroke="#DA8500" stroke-width="8.58033" stroke-linecap="round"/>
</svg>
